<svg width="32" height="31" viewBox="0 0 32 31" fill="none" xmlns="http://www.w3.org/2000/svg">
<path d="M24.8884 24.5452C20.3168 20.9706 23.5432 6.26753 23.5432 6.26753C23.5432 6.26753 28.5475 6.26753 29.1307 6.26753C29.7138 6.26753 32 5.90087 32 3.16322C32 -0.204452 29.2063 0.00247856 29.2063 0.00247856C29.2063 0.00247856 13.892 0.00247856 8.6339 0.00247856C5.25699 0.00247856 2.20912 3.86884 0.459609 6.63419C-0.471752 8.1111 0.0549814 8.52496 1.65434 7.82892C7.26097 5.37379 8.84117 6.25795 8.84117 6.25795C9.23622 8.14872 9.3679 16.6808 7.92896 20.0481C6.47087 23.2184 3.78077 27.2349 7.73127 29.596C10.8168 31.3455 14.0524 27.7521 13.7326 21.6375C13.5821 18.4016 13.328 6.26719 13.328 6.26719H18.4831C18.3227 8.15795 17.4485 17.8091 18.361 23.5287C19.3109 33.0765 29.6865 31.2234 31.6241 25.8152C32.1036 24.3194 31.9911 23.1716 31.6333 22.3059C30.9746 20.6976 29.8739 20.6131 29.9967 21.3653C30.0723 21.8448 30.0251 22.3151 29.9495 22.7389C29.7234 24.0465 27.0521 26.0966 24.8884 24.5452Z" fill="#3F00C5" fill-opacity="0.21"/>
</svg>
